<?xml version="1.0" encoding="UTF-8"?>
<svg xmlns="http://www.w3.org/2000/svg" xmlns:xlink="http://www.w3.org/1999/xlink" width="383px" height="335px" viewBox="0 0 383 335" version="1.1">
<g id="surface1">
<path style=" stroke:none;fill-rule:evenodd;fill:rgb(100%,21.568627%,26.666667%);fill-opacity:1;" d="M 382.976562 156.515625 L 383 158.410156 L 382.988281 160.308594 L 382.941406 162.207031 L 382.855469 164.101562 L 382.742188 165.992188 L 382.589844 167.886719 L 382.40625 169.773438 L 382.191406 171.65625 L 381.941406 173.539062 L 381.667969 175.410156 L 381.363281 177.28125 L 381.03125 179.144531 L 380.671875 181.007812 L 380.289062 182.859375 L 379.882812 184.703125 L 379.453125 186.546875 L 379.003906 188.378906 L 378.535156 190.207031 L 378.046875 192.03125 L 377.542969 193.84375 L 377.019531 195.65625 L 376.484375 197.457031 L 375.9375 199.257812 L 375.378906 201.050781 L 374.808594 202.84375 L 374.230469 204.628906 L 373.644531 206.410156 L 373.054688 208.191406 L 371.851562 211.746094 L 371.246094 213.519531 L 370.027344 217.074219 L 369.414062 218.851562 L 368.1875 222.414062 L 367.574219 224.203125 L 366.964844 225.996094 L 366.351562 227.792969 L 365.738281 229.597656 L 365.128906 231.40625 L 364.519531 233.222656 L 363.90625 235.046875 L 363.296875 236.878906 L 362.683594 238.71875 L 362.066406 240.566406 L 361.445312 242.421875 L 360.820312 244.289062 L 360.191406 246.164062 L 359.554688 248.046875 L 358.914062 249.9375 L 358.261719 251.835938 L 357.601562 253.742188 L 356.925781 255.65625 L 356.242188 257.574219 L 355.542969 259.5 L 354.828125 261.433594 L 354.097656 263.367188 L 353.347656 265.304688 L 352.582031 267.25 L 351.792969 269.191406 L 350.980469 271.132812 L 350.144531 273.074219 L 349.285156 275.015625 L 348.398438 276.949219 L 347.484375 278.878906 L 346.542969 280.800781 L 345.570312 282.714844 L 344.566406 284.617188 L 343.53125 286.511719 L 342.464844 288.386719 L 341.359375 290.246094 L 340.226562 292.089844 L 339.050781 293.910156 L 337.84375 295.710938 L 336.597656 297.488281 L 335.3125 299.238281 L 333.996094 300.964844 L 332.636719 302.65625 L 331.238281 304.320312 L 329.804688 305.949219 L 328.335938 307.542969 L 326.824219 309.097656 L 325.277344 310.617188 L 323.695312 312.09375 L 322.074219 313.53125 L 320.417969 314.921875 L 318.730469 316.269531 L 317.003906 317.570312 L 315.246094 318.824219 L 313.457031 320.03125 L 311.636719 321.1875 L 309.785156 322.292969 L 307.90625 323.351562 L 306 324.355469 L 304.066406 325.308594 L 302.109375 326.210938 L 300.128906 327.0625 L 298.128906 327.863281 L 296.105469 328.609375 L 294.066406 329.304688 L 292.011719 329.949219 L 289.941406 330.546875 L 287.855469 331.089844 L 285.757812 331.589844 L 283.652344 332.039062 L 281.535156 332.441406 L 279.410156 332.796875 L 277.28125 333.109375 L 275.148438 333.378906 L 273.011719 333.609375 L 270.871094 333.796875 L 268.734375 333.949219 L 266.59375 334.0625 L 264.457031 334.144531 L 262.324219 334.195312 L 260.195312 334.214844 L 258.070312 334.207031 L 255.953125 334.171875 L 253.839844 334.117188 L 251.734375 334.039062 L 249.636719 333.941406 L 247.546875 333.828125 L 245.464844 333.699219 L 243.390625 333.558594 L 241.324219 333.40625 L 239.265625 333.246094 L 237.21875 333.078125 L 235.179688 332.90625 L 233.144531 332.730469 L 231.121094 332.554688 L 229.101562 332.378906 L 227.09375 332.203125 L 225.085938 332.03125 L 223.089844 331.863281 L 221.09375 331.699219 L 219.105469 331.539062 L 217.117188 331.386719 L 215.132812 331.238281 L 213.152344 331.097656 L 211.171875 330.964844 L 209.191406 330.839844 L 207.210938 330.71875 L 205.230469 330.609375 L 203.25 330.507812 L 201.261719 330.414062 L 199.273438 330.328125 L 197.28125 330.246094 L 195.28125 330.175781 L 193.277344 330.113281 L 191.265625 330.058594 L 189.25 330.007812 L 187.222656 329.964844 L 185.1875 329.925781 L 183.144531 329.890625 L 181.089844 329.859375 L 179.027344 329.832031 L 176.949219 329.808594 L 174.863281 329.78125 L 172.765625 329.757812 L 170.652344 329.730469 L 168.53125 329.707031 L 166.394531 329.671875 L 164.246094 329.636719 L 162.085938 329.59375 L 159.910156 329.542969 L 157.722656 329.484375 L 155.523438 329.414062 L 153.308594 329.332031 L 151.082031 329.234375 L 148.847656 329.125 L 146.597656 328.996094 L 144.335938 328.851562 L 142.066406 328.683594 L 139.785156 328.5 L 137.496094 328.289062 L 135.199219 328.054688 L 132.890625 327.792969 L 130.578125 327.503906 L 128.261719 327.1875 L 125.9375 326.839844 L 123.609375 326.460938 L 121.277344 326.046875 L 118.949219 325.597656 L 116.617188 325.117188 L 114.285156 324.597656 L 111.957031 324.039062 L 109.632812 323.441406 L 107.3125 322.804688 L 105 322.125 L 102.695312 321.40625 L 100.394531 320.648438 L 98.105469 319.847656 L 95.828125 319.003906 L 93.5625 318.117188 L 91.308594 317.191406 L 89.066406 316.222656 L 86.839844 315.214844 L 84.625 314.164062 L 82.429688 313.070312 L 80.25 311.941406 L 78.085938 310.769531 L 75.941406 309.558594 L 73.8125 308.308594 L 71.703125 307.019531 L 69.613281 305.691406 L 67.539062 304.332031 L 65.488281 302.929688 L 63.460938 301.496094 L 61.449219 300.023438 L 59.460938 298.515625 L 57.492188 296.976562 L 55.546875 295.40625 L 53.625 293.796875 L 51.722656 292.160156 L 49.847656 290.488281 L 47.992188 288.785156 L 46.164062 287.054688 L 44.355469 285.289062 L 42.574219 283.496094 L 40.820312 281.671875 L 39.089844 279.820312 L 37.386719 277.9375 L 35.714844 276.027344 L 34.066406 274.089844 L 32.449219 272.121094 L 30.863281 270.125 L 29.304688 268.105469 L 27.78125 266.054688 L 26.292969 263.976562 L 24.835938 261.871094 L 23.417969 259.742188 L 22.03125 257.585938 L 20.683594 255.402344 L 19.375 253.195312 L 18.105469 250.964844 L 16.875 248.710938 L 15.6875 246.433594 L 14.539062 244.132812 L 13.429688 241.8125 L 12.367188 239.46875 L 11.34375 237.109375 L 10.367188 234.726562 L 9.433594 232.328125 L 8.542969 229.910156 L 7.695312 227.480469 L 6.894531 225.03125 L 6.136719 222.566406 L 5.425781 220.089844 L 4.757812 217.601562 L 4.136719 215.101562 L 3.558594 212.589844 L 3.027344 210.070312 L 2.539062 207.542969 L 2.09375 205.003906 L 1.695312 202.460938 L 1.335938 199.910156 L 1.023438 197.355469 L 0.753906 194.800781 L 0.523438 192.238281 L 0.335938 189.675781 L 0.191406 187.109375 L 0.0898438 184.546875 L 0.0234375 181.980469 L 0 179.417969 L 0.015625 176.855469 L 0.0664062 174.296875 L 0.160156 171.742188 L 0.289062 169.191406 L 0.453125 166.644531 L 0.65625 164.101562 L 0.890625 161.566406 L 1.164062 159.039062 L 1.472656 156.515625 L 1.8125 154 L 2.1875 151.492188 L 2.59375 148.996094 L 3.035156 146.503906 L 3.507812 144.027344 L 4.015625 141.554688 L 4.550781 139.09375 L 5.117188 136.644531 L 5.714844 134.207031 L 6.34375 131.78125 L 7 129.367188 L 7.683594 126.964844 L 8.394531 124.574219 L 9.136719 122.199219 L 9.902344 119.835938 L 10.695312 117.484375 L 11.515625 115.148438 L 12.359375 112.824219 L 13.226562 110.511719 L 14.121094 108.21875 L 15.039062 105.9375 L 15.980469 103.671875 L 16.945312 101.417969 L 17.933594 99.183594 L 18.941406 96.960938 L 19.976562 94.753906 L 21.03125 92.566406 L 22.109375 90.390625 L 23.210938 88.230469 L 24.335938 86.089844 L 25.480469 83.964844 L 26.648438 81.859375 L 27.835938 79.765625 L 29.046875 77.695312 L 30.28125 75.640625 L 31.539062 73.601562 L 32.816406 71.585938 L 34.117188 69.585938 L 35.4375 67.609375 L 36.78125 65.648438 L 38.148438 63.710938 L 39.535156 61.792969 L 40.945312 59.894531 L 42.375 58.015625 L 43.828125 56.160156 L 45.296875 54.328125 L 46.789062 52.515625 L 48.304688 50.726562 L 49.835938 48.960938 L 51.390625 47.21875 L 52.960938 45.5 L 54.554688 43.800781 L 56.167969 42.128906 L 57.796875 40.484375 L 59.449219 38.863281 L 61.121094 37.265625 L 62.808594 35.699219 L 64.519531 34.15625 L 66.25 32.640625 L 67.996094 31.15625 L 69.765625 29.699219 L 71.550781 28.269531 L 73.355469 26.875 L 75.179688 25.507812 L 77.023438 24.171875 L 78.886719 22.867188 L 80.765625 21.597656 L 82.660156 20.359375 L 84.574219 19.15625 L 86.507812 17.984375 L 88.457031 16.851562 L 90.421875 15.753906 L 92.398438 14.691406 L 94.394531 13.664062 L 96.40625 12.675781 L 98.429688 11.722656 L 100.46875 10.808594 L 102.519531 9.933594 L 104.578125 9.09375 L 106.652344 8.296875 L 108.738281 7.535156 L 110.832031 6.8125 L 112.933594 6.128906 L 115.042969 5.484375 L 117.164062 4.875 L 119.285156 4.308594 L 121.414062 3.777344 L 123.546875 3.285156 L 125.683594 2.832031 L 127.824219 2.414062 L 129.960938 2.03125 L 132.101562 1.6875 L 134.242188 1.375 L 136.382812 1.101562 L 138.519531 0.859375 L 140.648438 0.652344 L 142.78125 0.476562 L 144.902344 0.332031 L 147.023438 0.222656 L 149.136719 0.140625 L 151.242188 0.09375 L 153.339844 0.0742188 L 155.433594 0.0859375 L 157.515625 0.128906 L 159.589844 0.199219 L 161.65625 0.300781 L 163.714844 0.429688 L 165.761719 0.589844 L 167.796875 0.777344 L 169.824219 0.996094 L 171.839844 1.242188 L 173.839844 1.515625 L 175.835938 1.820312 L 177.8125 2.148438 L 179.78125 2.507812 L 181.734375 2.898438 L 183.675781 3.3125 L 185.605469 3.753906 L 187.519531 4.226562 L 189.417969 4.722656 L 191.300781 5.246094 L 193.167969 5.796875 L 195.019531 6.375 L 196.855469 6.976562 L 198.675781 7.601562 L 200.480469 8.253906 L 202.265625 8.929688 L 204.035156 9.625 L 205.785156 10.34375 L 207.515625 11.085938 L 209.230469 11.847656 L 210.921875 12.625 L 212.597656 13.425781 L 214.253906 14.238281 L 215.890625 15.070312 L 217.507812 15.914062 L 219.105469 16.769531 L 220.683594 17.632812 L 222.238281 18.511719 L 223.777344 19.394531 L 225.296875 20.285156 L 226.796875 21.179688 L 228.28125 22.078125 L 229.746094 22.980469 L 231.191406 23.882812 L 232.617188 24.785156 L 234.03125 25.6875 L 235.425781 26.582031 L 236.804688 27.476562 L 238.167969 28.367188 L 239.519531 29.25 L 240.851562 30.128906 L 242.175781 30.996094 L 243.484375 31.859375 L 244.78125 32.710938 L 246.070312 33.550781 L 247.347656 34.382812 L 248.613281 35.203125 L 249.871094 36.011719 L 251.121094 36.808594 L 252.367188 37.59375 L 253.605469 38.367188 L 254.835938 39.128906 L 256.0625 39.875 L 257.289062 40.609375 L 258.507812 41.332031 L 259.730469 42.039062 L 260.945312 42.734375 L 262.164062 43.417969 L 263.378906 44.089844 L 264.59375 44.75 L 265.8125 45.398438 L 267.035156 46.035156 L 268.257812 46.660156 L 269.484375 47.277344 L 270.714844 47.882812 L 271.949219 48.476562 L 273.1875 49.066406 L 274.433594 49.644531 L 275.683594 50.214844 L 276.941406 50.78125 L 278.203125 51.339844 L 279.472656 51.894531 L 280.753906 52.441406 L 282.039062 52.984375 L 283.332031 53.523438 L 284.632812 54.0625 L 285.941406 54.597656 L 287.261719 55.132812 L 288.589844 55.664062 L 289.925781 56.199219 L 291.269531 56.734375 L 292.625 57.273438 L 293.988281 57.8125 L 295.359375 58.359375 L 296.738281 58.90625 L 298.128906 59.460938 L 299.523438 60.023438 L 300.929688 60.589844 L 302.34375 61.167969 L 303.761719 61.753906 L 305.191406 62.347656 L 306.625 62.953125 L 308.066406 63.570312 L 309.515625 64.199219 L 310.972656 64.839844 L 312.429688 65.496094 L 313.894531 66.164062 L 315.367188 66.847656 L 316.839844 67.546875 L 318.320312 68.261719 L 319.800781 68.992188 L 321.289062 69.742188 L 322.773438 70.507812 L 324.265625 71.292969 L 325.753906 72.097656 L 327.246094 72.921875 L 328.738281 73.761719 L 330.226562 74.625 L 331.71875 75.511719 L 333.203125 76.414062 L 334.6875 77.34375 L 336.167969 78.292969 L 337.644531 79.265625 L 339.113281 80.261719 L 340.574219 81.28125 L 342.03125 82.324219 L 343.476562 83.390625 L 344.910156 84.484375 L 346.335938 85.605469 L 347.75 86.746094 L 349.148438 87.917969 L 350.53125 89.109375 L 351.898438 90.332031 L 353.25 91.578125 L 354.585938 92.851562 L 355.898438 94.148438 L 357.195312 95.472656 L 358.46875 96.824219 L 359.71875 98.199219 L 360.945312 99.601562 L 362.148438 101.027344 L 363.324219 102.476562 L 364.476562 103.953125 L 365.597656 105.453125 L 366.691406 106.972656 L 367.757812 108.519531 L 368.792969 110.089844 L 369.796875 111.679688 L 370.765625 113.292969 L 371.707031 114.925781 L 372.609375 116.578125 L 373.480469 118.253906 L 374.316406 119.945312 L 375.113281 121.65625 L 375.875 123.382812 L 376.601562 125.128906 L 377.289062 126.890625 L 377.9375 128.667969 L 378.550781 130.457031 L 379.121094 132.261719 L 379.65625 134.074219 L 380.148438 135.902344 L 380.605469 137.742188 L 381.019531 139.589844 L 381.394531 141.445312 L 381.726562 143.3125 L 382.023438 145.183594 L 382.28125 147.0625 L 382.496094 148.945312 L 382.671875 150.835938 L 382.8125 152.726562 L 382.914062 154.617188 Z M 382.976562 156.515625 "/>
</g>
</svg>
