<svg width="400" height="319" viewBox="0 0 400 319" fill="none" xmlns="http://www.w3.org/2000/svg">
<path fill-rule="evenodd" clip-rule="evenodd" d="M399.974 149.04L400 150.846L399.988 152.653L399.938 154.459L399.851 156.263L399.729 158.066L399.571 159.867L399.379 161.665L399.154 163.459L398.896 165.249L398.608 167.034L398.29 168.815L397.944 170.59L397.57 172.361L397.17 174.125L396.745 175.883L396.297 177.636L395.827 179.383L395.336 181.123L394.827 182.858L394.299 184.587L393.756 186.31L393.197 188.028L392.626 189.742L392.042 191.45L391.447 193.155L390.843 194.855L390.231 196.553L389.612 198.248L388.987 199.941L388.358 201.632L387.724 203.323L387.088 205.014L386.45 206.706L385.811 208.399L385.171 210.095L384.531 211.793L383.891 213.495L383.252 215.202L382.613 216.913L381.974 218.63L381.336 220.353L380.698 222.083L380.06 223.82L379.421 225.565L378.78 227.317L378.136 229.077L377.489 230.845L376.837 232.622L376.18 234.406L375.516 236.199L374.845 237.999L374.164 239.807L373.473 241.622L372.77 243.444L372.055 245.273L371.325 247.107L370.578 248.946L369.815 250.789L369.033 252.635L368.23 254.484L367.406 256.334L366.559 258.184L365.687 260.033L364.789 261.88L363.863 263.723L362.909 265.56L361.925 267.391L360.91 269.213L359.862 271.025L358.78 272.826L357.665 274.613L356.513 276.384L355.326 278.139L354.101 279.874L352.838 281.589L351.537 283.281L350.197 284.948L348.819 286.589L347.4 288.202L345.942 289.785L344.445 291.336L342.908 292.853L341.332 294.336L339.716 295.781L338.063 297.188L336.371 298.555L334.642 299.88L332.877 301.163L331.076 302.402L329.24 303.597L327.37 304.745L325.469 305.847L323.536 306.901L321.573 307.907L319.581 308.864L317.563 309.773L315.519 310.632L313.451 311.442L311.361 312.203L309.25 312.915L307.12 313.578L304.973 314.192L302.81 314.759L300.632 315.278L298.442 315.751L296.241 316.179L294.031 316.562L291.813 316.901L289.589 317.199L287.361 317.456L285.129 317.674L282.896 317.854L280.662 317.998L278.428 318.108L276.197 318.186L273.969 318.234L271.745 318.253L269.526 318.245L267.314 318.213L265.107 318.159L262.908 318.085L260.717 317.992L258.533 317.884L256.359 317.761L254.193 317.626L252.035 317.482L249.887 317.329L247.748 317.17L245.617 317.006L243.494 316.84L241.379 316.672L239.272 316.505L237.172 316.338L235.078 316.174L232.99 316.014L230.908 315.857L228.829 315.705L226.755 315.559L224.683 315.419L222.614 315.285L220.545 315.158L218.478 315.038L216.41 314.925L214.341 314.82L212.27 314.722L210.196 314.632L208.119 314.55L206.037 314.475L203.95 314.408L201.857 314.347L199.757 314.294L197.649 314.246L195.533 314.204L193.408 314.167L191.273 314.135L189.128 314.106L186.972 314.08L184.804 314.055L182.625 314.032L180.433 314.009L178.228 313.984L176.011 313.958L173.78 313.928L171.536 313.893L169.279 313.852L167.007 313.804L164.723 313.747L162.425 313.681L160.114 313.602L157.79 313.511L155.453 313.405L153.105 313.284L150.744 313.145L148.373 312.987L145.991 312.809L143.599 312.608L141.199 312.385L138.79 312.137L136.375 311.862L133.953 311.56L131.526 311.229L129.096 310.867L126.662 310.474L124.227 310.048L121.792 309.588L119.358 309.093L116.927 308.561L114.499 307.992L112.077 307.386L109.66 306.74L107.252 306.056L104.852 305.333L102.461 304.57L100.082 303.767L97.7147 302.924L95.3602 302.042L93.0195 301.12L90.6935 300.159L88.3829 299.158L86.0887 298.119L83.8113 297.041L81.5517 295.926L79.3103 294.773L77.0878 293.582L74.8846 292.356L72.7014 291.093L70.5386 289.795L68.3966 288.462L66.2758 287.095L64.1768 285.694L62.0998 284.26L60.0452 282.794L58.0135 281.296L56.0051 279.766L54.0202 278.205L52.0594 276.614L50.123 274.993L48.2116 273.343L46.3257 271.664L44.4657 269.956L42.6323 268.219L40.8261 266.455L39.0479 264.663L37.2984 262.844L35.5786 260.998L33.8893 259.125L32.2317 257.225L30.6067 255.299L29.0156 253.347L27.4593 251.369L25.9389 249.365L24.4555 247.336L23.01 245.283L21.6034 243.205L20.2365 241.104L18.9103 238.979L17.6255 236.832L16.383 234.664L15.1835 232.474L14.0275 230.263L12.9158 228.033L11.8489 225.784L10.8272 223.516L9.85113 221.232L8.92114 218.93L8.03748 216.614L7.20038 214.282L6.41 211.937L5.66645 209.579L4.96977 207.209L4.31994 204.828L3.71686 202.437L3.16041 200.037L2.65039 197.629L2.18653 195.213L1.76854 192.791L1.39607 190.364L1.06873 187.931L0.78607 185.496L0.547625 183.057L0.352888 180.616L0.201326 178.174L0.0923789 175.732L0.0254682 173.29L0 170.849L0.0153698 168.41L0.070967 165.974L0.166179 163.54L0.300398 161.11L0.473021 158.685L0.68346 156.265L0.93114 153.85L1.21551 151.442L1.53603 149.04L1.89221 146.645L2.28358 144.258L2.70969 141.879L3.1701 139.508L3.66434 137.147L4.1919 134.794L4.75221 132.452L5.34472 130.12L5.9688 127.799L6.62387 125.488L7.30931 123.189L8.0245 120.902L8.76884 118.626L9.54174 116.363L10.3426 114.111L11.1709 111.873L12.0261 109.647L12.9077 107.435L13.8153 105.235L14.7483 103.05L15.7065 100.877L16.6894 98.7192L17.6968 96.5751L18.7284 94.4452L19.7839 92.3299L20.8631 90.2293L21.9659 88.1436L23.0921 86.0731L24.2417 84.018L25.4145 81.9786L26.6105 79.9552L27.8297 77.948L29.072 75.9574L30.3375 73.9836L31.6261 72.027L32.9378 70.0879L34.2727 68.1667L35.6305 66.2637L37.0114 64.3792L38.4152 62.5135L39.8417 60.6671L41.2909 58.8403L42.7625 57.0332L44.2563 55.2463L45.772 53.4797L47.3093 51.7338L48.8679 50.0089L50.4477 48.3052L52.0485 46.6231L53.6702 44.963L55.3126 43.3252L56.9757 41.7102L58.6593 40.1184L60.3635 38.5503L62.0881 37.0064L63.833 35.4871L65.5984 33.9931L67.384 32.5248L69.1898 31.0828L71.0157 29.6677L72.8616 28.28L74.7274 26.9205L76.613 25.5896L78.5182 24.288L80.4428 23.0164L82.3865 21.7752L84.3491 20.5651L86.3303 19.3867L88.3297 18.2406L90.347 17.1272L92.3817 16.0472L94.4334 15.001L96.5016 13.9892L98.5856 13.0121L100.685 12.0702L102.799 11.1639L104.927 10.2934L107.068 9.45905L109.222 8.6611L111.388 7.89972L113.565 7.17504L115.751 6.48714L117.947 5.83603L120.151 5.22168L122.363 4.64398L124.58 4.10279L126.804 3.59787L129.031 3.12895L131.262 2.69569L133.496 2.29769L135.731 1.93448L137.966 1.60555L140.201 1.31031L142.435 1.04814L144.666 0.818365L146.893 0.620354L149.117 0.453533L151.335 0.31738L153.548 0.211427L155.755 0.135255L157.955 0.0884902L160.147 0.0708008L162.332 0.0818949L164.508 0.121515L166.675 0.189437L168.833 0.285461L170.98 0.409413L173.118 0.561135L175.245 0.740488L177.361 0.94734L179.466 1.18156L181.558 1.44304L183.639 1.73164L185.707 2.04722L187.761 2.38964L189.802 2.75874L191.83 3.15433L193.842 3.5762L195.841 4.02411L197.824 4.49778L199.791 4.99689L201.742 5.52109L203.677 6.06996L205.595 6.64306L207.496 7.23985L209.379 7.85977L211.244 8.50217L213.09 9.16633L214.918 9.85148L216.727 10.5568L218.516 11.2812L220.285 12.0238L222.035 12.7835L223.764 13.559L225.473 14.349L227.161 15.1522L228.829 15.9671L230.477 16.7923L232.104 17.6265L233.711 18.4681L235.298 19.316L236.865 20.1686L238.413 21.0247L239.942 21.8831L241.452 22.7424L242.944 23.6014L244.418 24.4591L245.875 25.3143L247.315 26.1659L248.74 27.0129L250.149 27.8544L251.544 28.6895L252.924 29.5173L254.292 30.3371L255.648 31.1481L256.992 31.9498L258.325 32.7415L259.649 33.5227L260.963 34.2931L262.269 35.0521L263.569 35.7996L264.861 36.5352L266.148 37.2588L267.43 37.9702L268.709 38.6694L269.984 39.3565L271.257 40.0313L272.528 40.6942L273.799 41.3451L275.069 41.9845L276.34 42.6125L277.613 43.2294L278.888 43.8356L280.165 44.4315L281.446 45.0176L282.731 45.5943L284.02 46.1622L285.315 46.7216L286.615 47.2733L287.921 47.8178L289.233 48.3557L290.552 48.8877L291.879 49.4142L293.214 49.9361L294.556 50.454L295.907 50.9685L297.266 51.4802L298.634 51.9901L300.011 52.4987L301.398 53.007L302.793 53.5156L304.198 54.0254L305.612 54.5373L307.036 55.052L308.468 55.5704L309.909 56.0933L311.36 56.6216L312.819 57.156L314.286 57.6973L315.762 58.2463L317.246 58.8038L318.737 59.3705L320.236 59.9473L321.742 60.5347L323.255 61.1335L324.774 61.7443L326.299 62.3679L327.829 63.0049L329.365 63.6558L330.905 64.3214L332.449 65.0022L333.997 65.6987L335.548 66.4116L337.102 67.1413L338.657 67.8885L340.214 68.6537L341.771 69.4372L343.329 70.2398L344.885 71.0617L346.441 71.9036L347.993 72.7659L349.543 73.649L351.089 74.5534L352.63 75.4795L354.164 76.4278L355.692 77.3986L357.211 78.3924L358.721 79.4095L360.221 80.4503L361.709 81.515L363.184 82.6039L364.645 83.7172L366.09 84.855L367.519 86.0174L368.931 87.2045L370.324 88.4163L371.697 89.6527L373.049 90.9138L374.378 92.1993L375.684 93.5091L376.966 94.8431L378.222 96.2009L379.451 97.5823L380.653 98.987L381.826 100.415L382.969 101.865L384.081 103.337L385.161 104.831L386.209 106.346L387.224 107.881L388.204 109.437L389.148 111.011L390.057 112.605L390.929 114.217L391.763 115.846L392.559 117.491L393.317 119.153L394.035 120.829L394.714 122.521L395.352 124.225L395.95 125.943L396.507 127.672L397.023 129.412L397.498 131.163L397.931 132.923L398.322 134.691L398.672 136.467L398.981 138.25L399.248 140.038L399.474 141.832L399.659 143.63L399.804 145.431L399.909 147.234L399.974 149.04Z" fill="#FF3744"/>
</svg>
